<?xml version="1.0" encoding="UTF-8" ?>
<!DOCTYPE svg PUBLIC "-//W3C//DTD SVG 1.1//EN" "http://www.w3.org/Graphics/SVG/1.1/DTD/svg11.dtd">
<svg width="1024pt" height="637pt" viewBox="0 0 1024 637" version="1.1" xmlns="http://www.w3.org/2000/svg">
<g id="#1e2a77ff">
<path fill="#1e2a77" opacity="1.00" d=" M 10.80 0.00 L 339.20 0.00 C 339.20 18.36 339.21 36.72 339.20 55.07 C 251.22 55.10 163.24 55.07 75.27 55.09 C 75.28 118.65 75.27 182.21 75.27 245.77 C 114.02 245.77 152.77 245.78 191.52 245.77 C 191.58 262.05 191.53 278.33 191.54 294.61 C 152.80 294.61 114.06 294.63 75.32 294.60 C 75.21 367.21 75.31 439.82 75.27 512.42 C 53.78 512.44 32.29 512.50 10.80 512.39 C 10.80 341.59 10.80 170.80 10.80 0.00 Z" />
<path fill="#1e2a77" opacity="1.00" d=" M 212.55 246.53 C 229.83 246.53 247.10 246.52 264.38 246.54 C 264.41 262.57 264.37 278.61 264.40 294.65 C 247.11 294.71 229.82 294.69 212.53 294.67 C 212.55 278.62 212.52 262.58 212.55 246.53 Z" />
<path fill="#1e2a77" opacity="1.00" d=" M 420.77 246.58 C 437.79 246.47 454.81 246.55 471.84 246.54 C 471.85 335.76 471.84 424.98 471.84 514.20 C 455.29 514.22 438.73 514.21 422.18 514.21 C 421.74 506.28 421.97 498.35 421.60 490.43 C 413.63 503.92 400.17 514.15 384.79 517.47 C 364.17 521.93 341.60 518.69 323.74 507.22 C 309.47 498.17 298.83 484.16 292.32 468.70 C 283.28 447.43 281.18 423.83 282.74 400.96 C 284.55 378.95 290.98 356.54 305.22 339.24 C 316.26 325.58 332.57 316.53 349.92 313.98 C 363.48 312.30 377.71 312.85 390.43 318.28 C 402.77 323.39 413.14 332.57 420.69 343.50 C 420.88 311.19 420.72 278.89 420.77 246.58 M 366.57 358.79 C 359.65 360.44 353.17 364.06 348.42 369.40 C 340.59 377.97 337.39 389.64 335.89 400.88 C 333.80 418.67 334.44 437.64 342.97 453.80 C 348.80 465.08 359.38 474.45 372.18 476.51 C 384.30 478.96 397.31 474.63 406.07 466.02 C 416.12 456.36 421.19 442.54 422.52 428.88 C 423.25 414.10 422.67 398.93 417.72 384.84 C 414.51 375.62 408.67 366.86 399.92 362.11 C 389.81 356.62 377.59 356.28 366.57 358.79 Z" />
<path fill="#1e2a77" opacity="1.00" d=" M 690.86 246.58 C 708.17 246.49 725.47 246.52 742.78 246.56 C 742.76 335.77 742.77 424.98 742.77 514.20 C 725.47 514.22 708.17 514.23 690.87 514.19 C 690.85 424.99 690.86 335.78 690.86 246.58 Z" />
<path fill="#1e2a77" opacity="1.00" d=" M 764.28 294.68 C 764.29 278.62 764.22 262.57 764.32 246.51 C 781.61 246.58 798.90 246.46 816.19 246.57 C 816.21 262.57 816.15 278.57 816.22 294.57 C 798.91 294.82 781.59 294.62 764.28 294.68 Z" />
<path fill="#1e2a77" opacity="1.00" d=" M 540.80 320.94 C 554.10 315.37 568.60 312.98 582.98 313.18 C 601.35 312.91 620.29 316.87 635.64 327.36 C 649.57 336.72 659.43 351.17 665.27 366.73 C 672.91 386.78 674.89 408.43 675.17 429.72 C 630.15 429.83 585.14 429.74 540.13 429.77 C 540.64 443.54 545.19 457.88 555.41 467.55 C 568.77 480.33 590.76 481.58 606.40 472.37 C 612.35 468.85 617.01 463.17 618.92 456.49 C 636.71 456.35 654.50 456.45 672.30 456.43 C 667.01 474.65 656.29 491.61 640.78 502.78 C 625.09 514.38 605.33 519.52 585.99 519.40 C 565.43 519.34 544.07 515.81 526.58 504.39 C 512.94 495.65 502.86 482.08 497.05 467.07 C 489.41 447.37 487.68 425.92 488.40 404.96 C 489.34 385.73 494.24 366.27 505.10 350.16 C 513.73 337.14 526.39 326.92 540.80 320.94 M 558.14 362.19 C 547.59 370.56 542.56 384.07 541.60 397.18 C 568.29 397.19 594.98 397.17 621.67 397.19 C 621.41 385.92 618.04 374.24 610.07 365.97 C 597.02 351.97 573.03 350.02 558.14 362.19 Z" />
<path fill="#1e2a77" opacity="1.00" d=" M 856.49 330.41 C 870.51 319.39 888.56 315.42 905.94 313.69 C 926.56 312.51 947.97 312.63 967.44 320.42 C 980.03 325.37 991.20 334.41 997.60 346.45 C 1002.72 356.00 1005.14 366.83 1005.71 377.60 C 989.08 377.57 972.45 377.70 955.82 377.53 C 954.99 368.73 950.56 359.71 942.28 355.77 C 932.61 351.20 921.47 351.27 911.03 352.17 C 905.16 352.66 899.04 353.71 894.09 357.07 C 887.52 361.54 886.66 372.08 892.30 377.64 C 897.84 383.29 905.65 385.75 912.99 388.16 C 931.32 393.55 949.94 397.92 968.10 403.90 C 978.89 407.56 989.97 411.70 998.51 419.52 C 1006.42 426.76 1010.03 437.54 1010.78 448.02 C 1012.33 460.95 1010.88 474.71 1003.96 486.00 C 996.65 498.31 984.32 506.89 971.09 511.85 C 954.84 518.04 937.23 519.68 919.96 519.34 C 899.81 518.79 879.18 514.78 861.81 504.11 C 850.18 496.98 840.47 486.39 835.52 473.57 C 832.68 466.49 831.41 458.87 831.16 451.27 C 848.94 451.27 866.73 451.27 884.52 451.27 C 884.62 458.85 887.81 466.42 893.79 471.21 C 903.26 479.04 916.17 480.69 928.06 480.25 C 937.25 479.67 947.13 478.31 954.56 472.41 C 962.42 466.35 961.09 453.16 953.63 447.34 C 947.40 442.45 939.49 440.52 931.96 438.61 C 912.56 434.18 893.02 429.57 874.79 421.39 C 863.90 416.38 853.12 409.86 846.26 399.75 C 839.20 389.38 837.85 376.30 838.54 364.08 C 839.34 350.94 846.07 338.41 856.49 330.41 Z" />
<path fill="#1e2a77" opacity="1.00" d=" M 212.42 318.22 C 229.77 318.20 247.12 318.15 264.47 318.24 C 264.44 383.59 264.48 448.93 264.46 514.27 C 247.13 514.31 229.80 514.24 212.47 514.31 C 212.32 448.95 212.43 383.58 212.42 318.22 Z" />
<path fill="#1e2a77" opacity="1.00" d=" M 764.28 318.32 C 781.58 318.34 798.88 318.27 816.19 318.35 C 816.18 383.63 816.20 448.91 816.18 514.19 C 798.88 514.22 781.57 514.23 764.27 514.18 C 764.29 448.90 764.27 383.61 764.28 318.32 Z" />
<path fill="#1e2a77" opacity="1.00" d=" M 102.42 562.66 C 112.97 560.95 124.23 563.69 132.64 570.34 C 141.07 576.75 146.16 587.36 145.58 597.98 C 145.43 610.37 138.81 622.80 127.73 628.74 C 115.40 635.48 99.35 635.10 87.49 627.48 C 73.56 618.62 68.08 599.30 74.11 584.15 C 78.79 572.56 90.22 564.51 102.42 562.66 M 103.41 579.70 C 98.57 581.06 94.34 584.43 91.87 588.80 C 86.99 597.54 91.04 609.69 99.75 614.35 C 105.32 617.50 112.60 617.42 118.06 614.06 C 125.76 609.64 129.48 599.40 126.48 591.07 C 123.18 582.15 112.50 576.83 103.41 579.70 Z" />
<path fill="#1e2a77" opacity="1.00" d=" M 718.31 575.35 C 727.24 563.29 744.26 559.64 758.21 563.68 C 766.71 566.15 773.93 572.72 777.14 580.97 C 771.70 583.17 766.32 585.51 760.90 587.77 C 759.53 585.04 758.04 582.26 755.60 580.35 C 749.75 575.40 740.10 576.33 735.10 582.06 C 727.64 590.64 727.32 604.68 734.52 613.51 C 739.56 619.85 749.72 621.17 756.15 616.22 C 758.89 614.16 760.20 610.82 760.70 607.53 C 755.95 607.48 751.19 607.51 746.44 607.50 C 746.45 602.95 746.36 598.41 746.53 593.87 C 757.99 594.00 769.46 593.88 780.92 593.93 C 780.87 603.24 779.66 613.13 773.82 620.75 C 761.03 638.29 731.23 637.55 718.33 620.51 C 708.75 607.60 708.91 588.31 718.31 575.35 Z" />
<path fill="#1e2a77" opacity="1.00" d=" M 7.79 564.26 C 13.54 564.35 19.30 564.07 25.05 564.39 C 25.51 573.48 25.00 582.61 25.30 591.71 C 32.40 582.65 39.21 573.37 46.24 564.26 C 53.47 564.24 60.70 564.30 67.93 564.23 C 58.94 574.74 50.17 585.45 41.24 596.01 C 50.87 607.79 60.54 619.54 70.18 631.31 C 62.70 631.39 55.21 631.30 47.72 631.37 C 40.17 621.73 32.71 612.02 25.30 602.28 C 25.12 611.95 25.27 621.63 25.22 631.31 C 19.40 631.37 13.59 631.34 7.78 631.34 C 7.78 608.98 7.76 586.62 7.79 564.26 Z" />
<path fill="#1e2a77" opacity="1.00" d=" M 160.72 564.32 C 166.47 564.21 172.21 564.27 177.95 564.27 C 182.34 575.94 186.80 587.57 191.15 599.25 C 191.90 598.52 192.47 597.67 192.85 596.70 C 197.07 585.87 201.51 575.13 205.74 564.31 C 211.55 564.22 217.36 564.24 223.18 564.30 C 226.43 586.66 229.87 608.99 233.23 631.33 C 227.40 631.35 221.58 631.36 215.75 631.32 C 214.32 618.46 212.43 605.66 211.02 592.80 C 205.24 605.48 200.23 618.51 194.79 631.34 C 192.47 631.34 190.15 631.34 187.83 631.35 C 184.17 622.24 180.58 613.10 176.94 603.98 C 175.42 600.25 174.20 596.37 172.07 592.92 C 170.69 605.80 168.63 618.61 166.64 631.41 C 160.92 631.28 155.19 631.37 149.46 631.34 C 153.18 608.99 157.09 586.68 160.72 564.32 Z" />
<path fill="#1e2a77" opacity="1.00" d=" M 240.28 564.26 C 249.54 564.29 258.81 564.20 268.07 564.30 C 274.73 564.46 281.97 566.24 286.45 571.51 C 291.15 577.10 291.76 584.97 290.73 591.93 C 290.06 598.03 286.62 604.14 280.83 606.69 C 273.59 610.23 265.36 609.19 257.58 609.36 C 257.59 616.69 257.60 624.02 257.58 631.35 C 251.81 631.34 246.04 631.35 240.27 631.33 C 240.28 608.98 240.27 586.62 240.28 564.26 M 257.59 578.32 C 257.59 583.99 257.58 589.66 257.60 595.33 C 262.08 595.15 267.33 596.16 271.07 593.04 C 274.00 589.72 273.90 584.24 271.26 580.78 C 267.66 577.25 262.13 578.58 257.59 578.32 Z" />
<path fill="#1e2a77" opacity="1.00" d=" M 298.94 564.26 C 304.73 564.26 310.51 564.24 316.29 564.29 C 316.30 581.73 316.29 599.17 316.30 616.61 C 323.23 616.61 330.16 616.60 337.08 616.61 C 337.10 621.52 337.10 626.43 337.09 631.34 C 324.37 631.35 311.65 631.35 298.94 631.34 C 298.93 608.98 298.92 586.62 298.94 564.26 Z" />
<path fill="#1e2a77" opacity="1.00" d=" M 342.76 564.26 C 355.42 564.26 368.07 564.26 380.73 564.26 C 380.73 569.13 380.73 574.01 380.74 578.88 C 373.76 579.10 366.74 578.40 359.81 579.34 C 359.87 583.02 359.86 586.70 359.86 590.39 C 366.44 590.63 373.02 590.45 379.61 590.51 C 379.63 595.41 379.63 600.31 379.61 605.22 C 373.15 605.22 366.68 605.22 360.21 605.22 C 360.21 609.01 360.21 612.80 360.20 616.59 C 367.03 616.62 373.87 616.61 380.70 616.60 C 380.74 621.52 380.77 626.45 380.68 631.38 C 368.04 631.30 355.40 631.37 342.75 631.34 C 342.75 608.98 342.74 586.62 342.76 564.26 Z" />
<path fill="#1e2a77" opacity="1.00" d=" M 386.39 564.27 C 401.73 564.28 417.08 564.20 432.42 564.31 C 432.39 569.16 432.41 574.01 432.41 578.86 C 427.70 578.90 423.00 578.88 418.29 578.89 C 417.33 587.25 418.52 595.62 418.11 604.00 C 417.67 613.13 418.54 622.28 417.69 631.39 C 412.03 631.30 406.36 631.36 400.70 631.34 C 400.67 613.86 400.74 596.38 400.66 578.89 C 395.90 578.88 391.14 578.89 386.38 578.88 C 386.38 574.01 386.38 569.13 386.39 564.27 Z" />
<path fill="#1e2a77" opacity="1.00" d=" M 433.70 564.26 C 449.04 564.26 464.37 564.25 479.71 564.26 C 479.72 569.13 479.71 574.01 479.72 578.88 C 474.93 578.90 470.15 578.84 465.37 578.95 C 465.34 596.41 465.37 613.87 465.35 631.34 C 459.59 631.35 453.82 631.34 448.05 631.35 C 447.98 613.86 448.18 596.37 447.95 578.88 C 443.19 578.89 438.44 578.89 433.69 578.88 C 433.68 574.01 433.68 569.13 433.70 564.26 Z" />
<path fill="#1e2a77" opacity="1.00" d=" M 486.21 564.26 C 494.83 564.29 503.45 564.20 512.07 564.30 C 517.67 564.41 523.88 565.75 527.49 570.42 C 530.99 575.16 531.30 581.57 530.12 587.16 C 529.39 590.84 526.80 593.74 523.75 595.75 C 528.49 596.60 533.37 599.01 535.32 603.68 C 537.73 609.39 537.85 616.38 534.87 621.90 C 530.84 628.68 522.44 630.99 515.04 631.32 C 505.43 631.39 495.81 631.33 486.20 631.34 C 486.21 608.98 486.20 586.62 486.21 564.26 M 503.52 590.86 C 507.26 590.74 512.35 591.22 514.30 587.20 C 515.04 584.52 515.12 581.03 512.68 579.19 C 510.03 577.30 506.60 577.65 503.53 577.49 C 503.51 581.94 503.52 586.40 503.52 590.86 M 503.53 603.81 C 503.52 608.59 503.50 613.36 503.55 618.14 C 507.82 618.02 512.40 618.47 516.36 616.55 C 520.91 614.41 520.59 606.82 516.00 604.93 C 512.04 603.39 507.68 603.84 503.53 603.81 Z" />
<path fill="#1e2a77" opacity="1.00" d=" M 540.11 631.32 C 548.62 608.95 557.20 586.61 565.76 564.26 C 572.11 564.29 578.46 564.18 584.81 564.33 C 593.10 586.69 601.54 608.99 609.89 631.33 C 603.75 631.38 597.61 631.29 591.47 631.39 C 589.83 627.62 588.45 623.75 587.06 619.89 C 579.00 619.98 570.90 619.44 562.87 620.19 C 561.63 624.00 560.00 627.67 558.50 631.38 C 552.37 631.30 546.24 631.38 540.11 631.32 M 567.99 606.60 C 572.69 606.65 577.39 606.64 582.09 606.61 C 580.09 599.33 577.54 592.20 575.08 585.06 C 572.82 592.27 570.26 599.39 567.99 606.60 Z" />
<path fill="#1e2a77" opacity="1.00" d=" M 615.26 564.26 C 621.01 564.26 626.75 564.24 632.50 564.28 C 632.50 577.21 632.41 590.13 632.54 603.06 C 632.67 607.77 633.63 613.35 637.96 616.04 C 641.91 618.11 647.00 618.05 650.92 615.92 C 655.47 612.93 655.90 606.89 656.21 601.96 C 656.33 589.40 656.22 576.83 656.26 564.26 C 662.00 564.26 667.74 564.24 673.49 564.28 C 673.44 578.19 673.52 592.10 673.45 606.01 C 673.39 612.97 671.72 620.51 666.44 625.44 C 660.20 631.28 651.24 632.89 642.97 632.72 C 634.97 632.46 626.31 630.32 620.90 624.01 C 616.80 619.37 615.35 613.00 615.33 606.96 C 615.17 592.73 615.30 578.49 615.26 564.26 Z" />
<path fill="#1e2a77" opacity="1.00" d=" M 796.74 564.31 C 802.48 564.21 808.22 564.27 813.96 564.26 C 818.35 575.92 822.82 587.55 827.15 599.23 C 828.14 598.43 828.66 597.27 829.11 596.12 C 833.23 585.48 837.62 574.94 841.76 564.31 C 847.57 564.22 853.39 564.23 859.21 564.32 C 862.45 586.67 865.89 608.99 869.26 631.33 C 863.43 631.35 857.60 631.36 851.77 631.33 C 850.35 618.46 848.45 605.65 847.04 592.78 C 841.28 605.48 836.25 618.50 830.81 631.35 C 828.49 631.34 826.17 631.34 823.86 631.35 C 820.19 622.25 816.61 613.12 812.98 604.01 C 811.44 600.25 810.21 596.33 808.05 592.86 C 806.76 605.77 804.63 618.59 802.67 631.41 C 796.94 631.28 791.22 631.37 785.49 631.34 C 789.19 608.99 793.13 586.68 796.74 564.31 Z" />
<path fill="#1e2a77" opacity="1.00" d=" M 876.30 564.26 C 884.88 564.29 893.46 564.20 902.05 564.29 C 907.48 564.41 913.47 565.57 917.17 569.93 C 921.09 574.68 921.44 581.45 920.20 587.25 C 919.43 590.88 916.88 593.76 913.83 595.73 C 918.00 596.61 922.44 598.34 924.65 602.26 C 927.48 607.29 927.86 613.57 926.25 619.06 C 924.52 624.55 919.44 628.30 914.08 629.84 C 907.92 631.82 901.40 631.29 895.04 631.34 C 888.79 631.34 882.54 631.35 876.29 631.33 C 876.31 608.97 876.29 586.62 876.30 564.26 M 893.57 590.78 C 896.53 590.70 899.81 591.13 902.43 589.43 C 905.32 587.71 905.17 583.64 904.21 580.86 C 902.09 577.20 897.25 577.64 893.63 577.50 C 893.60 581.92 893.64 586.35 893.57 590.78 M 893.62 603.82 C 893.61 608.59 893.59 613.36 893.64 618.14 C 897.96 618.01 902.61 618.50 906.60 616.47 C 911.02 614.24 910.62 606.69 906.03 604.91 C 902.09 603.35 897.75 603.85 893.62 603.82 Z" />
<path fill="#1e2a77" opacity="1.00" d=" M 936.37 564.26 C 942.13 564.26 947.90 564.26 953.67 564.26 C 953.67 573.11 953.66 581.96 953.68 590.81 C 962.04 590.82 970.40 590.81 978.77 590.81 C 978.78 581.96 978.76 573.11 978.79 564.26 C 984.60 564.31 990.43 564.13 996.25 564.39 C 996.18 586.69 996.24 609.00 996.22 631.31 C 990.40 631.37 984.59 631.34 978.78 631.34 C 978.77 622.40 978.77 613.46 978.78 604.53 C 970.41 604.50 962.04 604.50 953.67 604.52 C 953.65 613.47 953.69 622.41 953.65 631.35 C 947.89 631.34 942.14 631.34 936.38 631.35 C 936.35 608.99 936.38 586.63 936.37 564.26 Z" />
</g>
</svg>
