<svg width="1777" height="1086" viewBox="0 0 1777 1086" fill="none" xmlns="http://www.w3.org/2000/svg">
<path d="M5.34735 0H585.576C585.576 31.4206 585.594 62.8412 585.576 94.2447C430.13 94.2961 274.684 94.2447 119.255 94.279C119.273 203.053 119.255 311.827 119.255 420.602C187.72 420.602 256.185 420.619 324.65 420.602C324.756 448.463 324.668 476.323 324.685 504.184C256.238 504.184 187.791 504.219 119.344 504.167C119.149 628.429 119.326 752.691 119.255 876.936C81.2859 876.97 43.3166 877.073 5.34735 876.885C5.34735 584.584 5.34735 292.301 5.34735 0Z" fill="white"/>
<path d="M361.806 421.903C392.337 421.903 422.851 421.886 453.382 421.92C453.435 449.353 453.364 476.804 453.417 504.254C422.868 504.357 392.32 504.322 361.771 504.288C361.806 476.821 361.753 449.371 361.806 421.903Z" fill="white"/>
<path d="M729.697 421.988C759.769 421.8 789.84 421.936 819.929 421.919C819.947 574.607 819.929 727.295 819.929 879.983C790.688 880.017 761.429 880 732.188 880C731.411 866.429 731.817 852.858 731.164 839.304C717.082 862.39 693.3 879.897 666.126 885.579C629.694 893.211 589.817 887.667 558.261 868.037C533.048 852.549 514.249 828.573 502.747 802.116C486.775 765.715 483.064 725.327 485.821 686.188C489.019 648.521 500.379 610.169 525.539 580.563C545.045 557.185 573.862 541.698 604.517 537.334C628.475 534.459 653.617 535.4 676.091 544.693C697.894 553.438 716.216 569.148 729.556 587.853C729.891 532.559 729.609 477.282 729.697 421.988ZM633.935 614.02C621.708 616.844 610.259 623.039 601.867 632.177C588.032 646.844 582.378 666.815 579.728 686.051C576.035 716.496 577.166 748.961 592.237 776.616C602.538 795.92 621.231 811.956 643.847 815.481C665.261 819.674 688.247 812.264 703.725 797.529C721.481 780.997 730.439 757.346 732.789 733.969C734.079 708.675 733.054 682.714 724.308 658.601C718.637 642.822 708.318 627.83 692.859 619.702C674.996 610.306 653.405 609.724 633.935 614.02Z" fill="white"/>
<path d="M1206.9 421.988C1237.49 421.834 1268.05 421.885 1298.64 421.954C1298.6 574.624 1298.62 727.295 1298.62 879.983C1268.05 880.017 1237.49 880.034 1206.92 879.966C1206.88 727.312 1206.9 574.641 1206.9 421.988Z" fill="white"/>
<path d="M1336.62 504.304C1336.64 476.819 1336.52 449.352 1336.69 421.867C1367.24 421.987 1397.79 421.782 1428.34 421.97C1428.37 449.352 1428.27 476.733 1428.39 504.115C1397.81 504.543 1367.21 504.201 1336.62 504.304Z" fill="white"/>
<path d="M941.77 549.245C965.269 539.713 990.888 535.623 1016.3 535.965C1048.75 535.503 1082.22 542.28 1109.34 560.232C1133.95 576.25 1151.37 600.98 1161.69 627.608C1175.19 661.921 1178.69 698.972 1179.18 735.407C1099.64 735.595 1020.11 735.441 940.586 735.493C941.488 759.058 949.527 783.599 967.584 800.148C991.189 822.019 1030.04 824.158 1057.67 808.397C1068.19 802.373 1076.42 792.652 1079.8 781.22C1111.23 780.981 1142.66 781.152 1174.11 781.117C1164.76 812.299 1145.82 841.323 1118.42 860.439C1090.7 880.291 1055.78 889.087 1021.61 888.882C985.287 888.779 947.548 882.738 916.646 863.194C892.546 848.237 874.736 825.014 864.471 799.326C850.973 765.613 847.916 728.904 849.188 693.034C850.849 660.124 859.506 626.821 878.694 599.251C893.942 576.969 916.31 559.479 941.77 549.245ZM972.407 619.839C953.767 634.163 944.88 657.283 943.184 679.719C990.341 679.736 1037.5 679.702 1084.65 679.736C1084.19 660.449 1078.24 640.461 1064.16 626.308C1041.1 602.349 998.715 599.011 972.407 619.839Z" fill="white"/>
<path d="M1499.54 565.451C1524.31 546.592 1556.2 539.798 1586.91 536.837C1623.34 534.818 1661.17 535.023 1695.57 548.355C1717.82 556.826 1737.55 572.297 1748.86 592.902C1757.91 609.245 1762.18 627.779 1763.19 646.211C1733.81 646.159 1704.42 646.382 1675.04 646.091C1673.58 631.031 1665.75 615.594 1651.12 608.852C1634.03 601.031 1614.35 601.151 1595.91 602.691C1585.53 603.529 1574.72 605.326 1565.98 611.076C1554.37 618.726 1552.85 636.764 1562.81 646.279C1572.6 655.948 1586.4 660.158 1599.37 664.283C1631.75 673.507 1664.65 680.986 1696.74 691.219C1715.8 697.483 1735.38 704.568 1750.47 717.951C1764.44 730.341 1770.82 748.79 1772.15 766.725C1774.89 788.853 1772.32 812.401 1760.1 831.722C1747.18 852.789 1725.4 867.473 1702.02 875.961C1673.31 886.554 1642.2 889.361 1611.68 888.779C1576.08 887.838 1539.63 880.975 1508.94 862.715C1488.39 850.513 1471.24 832.39 1462.49 810.45C1457.47 798.334 1455.23 785.293 1454.79 772.287C1486.2 772.287 1517.64 772.287 1549.07 772.287C1549.24 785.259 1554.88 798.214 1565.45 806.411C1582.18 819.811 1604.99 822.635 1625.99 821.882C1642.23 820.889 1659.69 818.562 1672.82 808.465C1686.7 798.094 1684.35 775.521 1671.17 765.561C1660.17 757.192 1646.19 753.89 1632.89 750.621C1598.61 743.04 1564.09 735.15 1531.88 721.151C1512.63 712.577 1493.59 701.419 1481.47 684.117C1468.99 666.37 1466.61 643.986 1467.83 623.073C1469.24 600.586 1481.13 579.142 1499.54 565.451Z" fill="white"/>
<path d="M361.577 544.588C392.231 544.554 422.886 544.468 453.541 544.622C453.488 656.46 453.558 768.28 453.523 880.101C422.904 880.169 392.284 880.049 361.665 880.169C361.4 768.314 361.595 656.443 361.577 544.588Z" fill="white"/>
<path d="M1336.62 544.761C1367.19 544.795 1397.76 544.676 1428.34 544.813C1428.32 656.53 1428.36 768.248 1428.32 879.966C1397.76 880.017 1367.17 880.034 1336.6 879.949C1336.64 768.231 1336.6 656.496 1336.62 544.761Z" fill="white"/>
<path d="M167.225 962.915C185.865 959.989 205.759 964.678 220.619 976.059C235.513 987.029 244.506 1005.19 243.481 1023.36C243.216 1044.56 231.52 1065.84 211.943 1076C190.158 1087.54 161.801 1086.89 140.846 1073.85C116.234 1058.68 106.552 1025.62 117.206 999.693C125.474 979.858 145.669 966.082 167.225 962.915ZM168.974 992.077C160.422 994.405 152.949 1000.17 148.585 1007.65C139.963 1022.61 147.118 1043.4 162.507 1051.38C172.349 1056.77 185.211 1056.63 194.858 1050.88C208.463 1043.32 215.035 1025.79 209.735 1011.54C203.904 996.27 185.035 987.166 168.974 992.077Z" fill="white"/>
<path d="M1255.4 984.631C1271.18 963.992 1301.25 957.745 1325.9 964.659C1340.92 968.886 1353.67 980.13 1359.34 994.249C1349.73 998.014 1340.23 1002.02 1330.65 1005.89C1328.23 1001.21 1325.6 996.456 1321.29 993.188C1310.95 984.716 1293.9 986.308 1285.07 996.114C1271.89 1010.8 1271.32 1034.83 1284.04 1049.94C1292.95 1060.79 1310.9 1063.05 1322.26 1054.57C1327.1 1051.05 1329.41 1045.33 1330.3 1039.7C1321.9 1039.62 1313.49 1039.67 1305.1 1039.65C1305.12 1031.86 1304.96 1024.09 1305.26 1016.33C1325.51 1016.55 1345.77 1016.34 1366.02 1016.43C1365.93 1032.36 1363.8 1049.29 1353.48 1062.33C1330.88 1092.34 1278.23 1091.08 1255.44 1061.92C1238.51 1039.82 1238.79 1006.81 1255.4 984.631Z" fill="white"/>
<path d="M0.0292067 965.653C10.1885 965.807 20.3655 965.328 30.5248 965.875C31.3375 981.432 30.4364 997.056 30.9665 1012.63C43.511 997.125 55.5432 981.243 67.964 965.653C80.7383 965.619 93.5125 965.721 106.287 965.602C90.4029 983.588 74.9077 1001.92 59.1299 1019.99C76.1445 1040.15 93.2298 1060.26 110.262 1080.4C97.0462 1080.54 83.8126 1080.38 70.579 1080.5C57.2394 1064 44.0587 1047.39 30.9665 1030.72C30.6485 1047.27 30.9135 1063.83 30.8252 1080.4C20.5422 1080.5 10.2769 1080.45 0.0115388 1080.45C0.0115388 1042.19 -0.0237984 1003.92 0.0292067 965.653Z" fill="white"/>
<path d="M270.231 965.755C280.391 965.567 290.532 965.669 300.674 965.669C308.43 985.641 316.31 1005.54 323.996 1025.53C325.321 1024.28 326.328 1022.83 327 1021.17C334.456 1002.63 342.301 984.255 349.774 965.738C360.04 965.584 370.305 965.618 380.588 965.721C386.33 1003.99 392.408 1042.2 398.345 1080.43C388.044 1080.47 377.761 1080.48 367.46 1080.42C364.934 1058.41 361.594 1036.5 359.103 1014.49C348.891 1036.19 340.039 1058.49 330.427 1080.45C326.328 1080.45 322.229 1080.45 318.13 1080.47C311.664 1064.88 305.321 1049.24 298.889 1033.63C296.204 1027.24 294.048 1020.6 290.285 1014.7C287.847 1036.74 284.207 1058.66 280.691 1080.57C270.585 1080.35 260.461 1080.5 250.337 1080.45C256.909 1042.2 263.818 1004.02 270.231 965.755Z" fill="white"/>
<path d="M410.801 965.653C427.162 965.704 443.54 965.55 459.901 965.722C471.668 965.995 484.46 969.042 492.376 978.06C500.68 987.627 501.757 1001.1 499.938 1013.01C498.754 1023.45 492.676 1033.9 482.446 1038.27C469.654 1044.32 455.113 1042.54 441.367 1042.84C441.385 1055.38 441.402 1067.92 441.367 1080.47C431.172 1080.45 420.978 1080.47 410.783 1080.43C410.801 1042.19 410.783 1003.92 410.801 965.653ZM441.385 989.715C441.385 999.418 441.367 1009.12 441.402 1018.83C449.318 1018.52 458.594 1020.25 465.202 1014.91C470.378 1009.22 470.202 999.846 465.537 993.925C459.177 987.884 449.406 990.16 441.385 989.715Z" fill="white"/>
<path d="M514.443 965.654C524.673 965.654 534.886 965.619 545.098 965.705C545.116 995.551 545.098 1025.4 545.116 1055.24C557.36 1055.24 569.604 1055.23 581.83 1055.24C581.866 1063.65 581.866 1072.05 581.848 1080.45C559.374 1080.47 536.9 1080.47 514.443 1080.45C514.426 1042.19 514.408 1003.92 514.443 965.654Z" fill="white"/>
<path d="M591.866 965.653C614.234 965.653 636.585 965.653 658.953 965.653C658.953 973.987 658.953 982.339 658.971 990.673C646.638 991.049 634.235 989.852 621.991 991.46C622.097 997.758 622.079 1004.06 622.079 1010.37C633.705 1010.78 645.331 1010.47 656.974 1010.58C657.009 1018.96 657.009 1027.35 656.974 1035.75C645.56 1035.75 634.129 1035.75 622.697 1035.75C622.697 1042.24 622.697 1048.72 622.68 1055.21C634.747 1055.26 646.832 1055.24 658.9 1055.23C658.971 1063.65 659.024 1072.08 658.865 1080.52C636.532 1080.38 614.199 1080.5 591.848 1080.45C591.848 1042.18 591.831 1003.92 591.866 965.653Z" fill="white"/>
<path d="M668.953 965.67C696.056 965.687 723.177 965.551 750.281 965.739C750.228 974.039 750.263 982.339 750.263 990.639C741.941 990.708 733.637 990.673 725.315 990.69C723.619 1005 725.722 1019.32 724.997 1033.66C724.22 1049.29 725.757 1064.95 724.255 1080.54C714.255 1080.38 704.237 1080.49 694.237 1080.45C694.184 1050.54 694.307 1020.62 694.166 990.69C685.756 990.673 677.346 990.69 668.935 990.673C668.935 982.339 668.936 973.988 668.953 965.67Z" fill="white"/>
<path d="M752.542 965.655C779.645 965.655 806.731 965.637 833.834 965.655C833.852 973.989 833.834 982.34 833.852 990.675C825.389 990.709 816.943 990.606 808.498 990.794C808.445 1020.67 808.498 1050.56 808.463 1080.45C798.286 1080.47 788.091 1080.45 777.896 1080.47C777.773 1050.54 778.126 1020.61 777.72 990.675C769.309 990.692 760.917 990.692 752.525 990.675C752.507 982.34 752.507 973.989 752.542 965.655Z" fill="white"/>
<path d="M845.319 965.653C860.549 965.704 875.779 965.55 891.009 965.722C900.903 965.91 911.875 968.203 918.254 976.195C924.438 984.307 924.985 995.277 922.9 1004.84C921.611 1011.14 917.035 1016.1 911.646 1019.54C920.02 1021 928.643 1025.12 932.088 1033.11C936.346 1042.89 936.558 1054.85 931.293 1064.3C924.173 1075.9 909.331 1079.85 896.257 1080.42C879.277 1080.54 862.28 1080.43 845.301 1080.45C845.319 1042.19 845.301 1003.92 845.319 965.653ZM875.903 1011.18C882.511 1010.97 891.504 1011.79 894.949 1004.91C896.257 1000.33 896.398 994.353 892.087 991.204C887.405 987.969 881.344 988.568 875.92 988.294C875.885 995.91 875.903 1003.54 875.903 1011.18ZM875.92 1033.34C875.903 1041.52 875.867 1049.68 875.956 1057.86C883.5 1057.66 891.592 1058.43 898.589 1055.14C906.628 1051.48 906.062 1038.49 897.953 1035.25C890.956 1032.62 883.253 1033.39 875.92 1033.34Z" fill="white"/>
<path d="M940.551 1080.42C955.587 1042.13 970.746 1003.9 985.871 965.654C997.09 965.706 1008.31 965.517 1019.53 965.774C1034.18 1004.04 1049.09 1042.2 1063.84 1080.44C1052.99 1080.52 1042.14 1080.37 1031.3 1080.54C1028.4 1074.09 1025.96 1067.46 1023.5 1060.86C1009.26 1061.01 994.952 1060.09 980.764 1061.37C978.573 1067.89 975.694 1074.17 973.043 1080.52C962.213 1080.38 951.382 1080.52 940.551 1080.42ZM989.811 1038.11C998.115 1038.2 1006.42 1038.18 1014.72 1038.13C1011.19 1025.67 1006.68 1013.47 1002.34 1001.25C998.344 1013.59 993.821 1025.77 989.811 1038.11Z" fill="white"/>
<path d="M1073.33 965.653C1083.49 965.653 1093.63 965.618 1103.79 965.687C1103.79 987.815 1103.63 1009.93 1103.86 1032.05C1104.09 1040.11 1105.79 1049.66 1113.44 1054.27C1120.41 1057.81 1129.41 1057.71 1136.33 1054.06C1144.37 1048.94 1145.13 1038.61 1145.68 1030.17C1145.89 1008.68 1145.7 987.164 1145.77 965.653C1155.91 965.653 1166.05 965.618 1176.21 965.687C1176.12 989.492 1176.26 1013.3 1176.14 1037.1C1176.03 1049.01 1173.08 1061.92 1163.76 1070.35C1152.73 1080.35 1136.9 1083.1 1122.29 1082.81C1108.15 1082.37 1092.85 1078.71 1083.29 1067.91C1076.05 1059.97 1073.49 1049.06 1073.45 1038.73C1073.17 1014.38 1073.4 990.005 1073.33 965.653Z" fill="white"/>
<path d="M1393.97 965.74C1404.12 965.569 1414.26 965.672 1424.4 965.655C1432.16 985.609 1440.05 1005.51 1447.7 1025.5C1449.45 1024.13 1450.37 1022.15 1451.17 1020.18C1458.45 1001.97 1466.2 983.932 1473.52 965.74C1483.78 965.586 1494.07 965.603 1504.35 965.757C1510.07 1004.01 1516.15 1042.2 1522.11 1080.44C1511.8 1080.47 1501.5 1080.49 1491.2 1080.44C1488.69 1058.41 1485.34 1036.49 1482.85 1014.46C1472.67 1036.2 1463.78 1058.48 1454.17 1080.47C1450.07 1080.45 1445.97 1080.45 1441.89 1080.47C1435.41 1064.9 1429.08 1049.27 1422.67 1033.68C1419.95 1027.25 1417.77 1020.54 1413.96 1014.6C1411.68 1036.69 1407.91 1058.63 1404.45 1080.57C1394.33 1080.35 1384.22 1080.5 1374.1 1080.45C1380.63 1042.2 1387.6 1004.02 1393.97 965.74Z" fill="white"/>
<path d="M1534.54 965.652C1549.7 965.703 1564.86 965.549 1580.04 965.703C1589.63 965.909 1600.22 967.894 1606.75 975.355C1613.68 983.484 1614.3 995.07 1612.11 1005C1610.75 1011.21 1606.24 1016.14 1600.85 1019.51C1608.22 1021.01 1616.07 1023.98 1619.97 1030.68C1624.97 1039.29 1625.64 1050.04 1622.8 1059.43C1619.74 1068.83 1610.76 1075.25 1601.29 1077.88C1590.41 1081.27 1578.89 1080.36 1567.65 1080.45C1556.61 1080.45 1545.57 1080.47 1534.53 1080.43C1534.56 1042.17 1534.53 1003.92 1534.54 965.652ZM1565.06 1011.04C1570.29 1010.9 1576.08 1011.64 1580.71 1008.73C1585.82 1005.78 1585.55 998.818 1583.86 994.061C1580.11 987.797 1571.56 988.55 1565.16 988.31C1565.11 995.875 1565.18 1003.46 1565.06 1011.04ZM1565.14 1033.35C1565.13 1041.52 1565.09 1049.68 1565.18 1057.86C1572.81 1057.64 1581.03 1058.48 1588.08 1055C1595.89 1051.19 1595.18 1038.27 1587.07 1035.22C1580.11 1032.55 1572.44 1033.4 1565.14 1033.35Z" fill="white"/>
<path d="M1640.68 965.652C1650.85 965.652 1661.05 965.652 1671.24 965.652C1671.24 980.798 1671.23 995.943 1671.26 1011.09C1686.03 1011.11 1700.8 1011.09 1715.59 1011.09C1715.61 995.943 1715.57 980.798 1715.63 965.652C1725.89 965.738 1736.19 965.43 1746.48 965.875C1746.35 1004.04 1746.46 1042.22 1746.42 1080.4C1736.14 1080.5 1725.87 1080.45 1715.61 1080.45C1715.59 1065.15 1715.59 1049.85 1715.61 1034.57C1700.82 1034.52 1686.03 1034.52 1671.24 1034.55C1671.21 1049.87 1671.28 1065.17 1671.21 1080.47C1661.03 1080.45 1650.87 1080.45 1640.7 1080.47C1640.64 1042.2 1640.7 1003.94 1640.68 965.652Z" fill="white"/>
</svg>
